<svg xmlns="http://www.w3.org/2000/svg" viewBox="0 0 240 120">
  <!-- Collier principal -->
  <path d="M20 10 Q30 5 50 8 Q80 15 120 30 Q160 15 190 8 Q210 5 220 10"
        fill="none" stroke="#d4af37" stroke-width="3" />
  <!-- Rangée de fleurs haute -->
  <circle cx="50" cy="15" r="10" fill="#ff6b9d" />
  <circle cx="75" cy="22" r="10" fill="#ff9a3c" />
  <circle cx="100" cy="27" r="10" fill="#ff6b9d" />
  <circle cx="120" cy="30" r="10" fill="#f5c518" />
  <circle cx="140" cy="27" r="10" fill="#ff6b9d" />
  <circle cx="165" cy="22" r="10" fill="#ff9a3c" />
  <circle cx="190" cy="15" r="10" fill="#ff6b9d" />
  <!-- Rangée de fleurs basse -->
  <circle cx="60" cy="35" r="9" fill="#ff9a3c" />
  <circle cx="85" cy="42" r="9" fill="#f5c518" />
  <circle cx="110" cy="48" r="9" fill="#ff6b9d" />
  <circle cx="130" cy="48" r="9" fill="#ff9a3c" />
  <circle cx="155" cy="42" r="9" fill="#f5c518" />
  <circle cx="180" cy="35" r="9" fill="#ff9a3c" />
  <!-- Pétales décoratifs -->
  <circle cx="95" cy="60" r="8" fill="#ff6b9d" opacity="0.8" />
  <circle cx="120" cy="65" r="8" fill="#f5c518" opacity="0.8" />
  <circle cx="145" cy="60" r="8" fill="#ff6b9d" opacity="0.8" />
  <!-- Pendentif central -->
  <path d="M120 65 L112 80 L120 95 L128 80 Z" fill="#d4af37" />
  <circle cx="120" cy="82" r="4" fill="#e74c3c" />
  <!-- Feuilles -->
  <ellipse cx="70" cy="28" rx="6" ry="3" fill="#27ae60" transform="rotate(-20,70,28)" />
  <ellipse cx="170" cy="28" rx="6" ry="3" fill="#27ae60" transform="rotate(20,170,28)" />
  <ellipse cx="100" cy="55" rx="5" ry="3" fill="#27ae60" transform="rotate(-10,100,55)" />
  <ellipse cx="140" cy="55" rx="5" ry="3" fill="#27ae60" transform="rotate(10,140,55)" />
</svg>
