<svg xmlns="http://www.w3.org/2000/svg" viewBox="0 0 260 200">
  <!-- Corps du turban -->
  <ellipse cx="130" cy="140" rx="125" ry="55" fill="#e91e8c" />
  <ellipse cx="130" cy="130" rx="120" ry="60" fill="#d4176f" />
  <!-- Plis du tissu -->
  <path d="M30 130 Q80 90 130 100 Q180 110 230 130" fill="none" stroke="#b8156e" stroke-width="3" />
  <path d="M40 145 Q90 105 130 115 Q170 125 220 145" fill="none" stroke="#b8156e" stroke-width="2" />
  <path d="M50 155 Q95 125 130 130 Q165 135 210 155" fill="none" stroke="#b8156e" stroke-width="2" />
  <!-- Sommet du turban -->
  <ellipse cx="130" cy="75" rx="70" ry="45" fill="#d4176f" />
  <ellipse cx="130" cy="70" rx="60" ry="38" fill="#e91e8c" />
  <path d="M80 70 Q105 40 130 50 Q155 60 180 70" fill="none" stroke="#b8156e" stroke-width="2" />
  <!-- Broche dorée -->
  <circle cx="130" cy="95" r="14" fill="#f5c518" />
  <circle cx="130" cy="95" r="9" fill="#d4af37" />
  <circle cx="130" cy="95" r="5" fill="#e74c3c" />
  <!-- Plume -->
  <path d="M130 81 Q135 50 140 20 Q142 10 138 20 Q130 45 125 80" fill="#f5c518" stroke="#d4af37" stroke-width="1" />
  <path d="M140 20 Q148 25 140 30" fill="none" stroke="#d4af37" stroke-width="1" />
  <path d="M140 30 Q150 33 140 40" fill="none" stroke="#d4af37" stroke-width="1" />
</svg>
